<svg width="201" height="47" viewBox="0 0 201 47" fill="none" xmlns="http://www.w3.org/2000/svg">
<path d="M3.22677 34C3.01587 34 2.83661 33.9367 2.68898 33.8102C2.54135 33.6626 2.46753 33.4727 2.46753 33.2408V12.6464C2.46753 12.4144 2.54135 12.2246 2.68898 12.0769C2.83661 11.9293 3.01587 11.8555 3.22677 11.8555H6.10556C6.33755 11.8555 6.51681 11.9293 6.64335 12.0769C6.79098 12.2246 6.8648 12.4144 6.8648 12.6464V20.8082H16.1971V12.6464C16.1971 12.4144 16.2709 12.2246 16.4186 12.0769C16.5662 11.9293 16.7455 11.8555 16.9564 11.8555H19.8035C20.0355 11.8555 20.2253 11.9293 20.3729 12.0769C20.5206 12.2246 20.5944 12.4144 20.5944 12.6464V33.2408C20.5944 33.4517 20.5206 33.6309 20.3729 33.7786C20.2253 33.9262 20.0355 34 19.8035 34H16.9564C16.7455 34 16.5662 33.9262 16.4186 33.7786C16.2709 33.6309 16.1971 33.4517 16.1971 33.2408V24.7626H6.8648V33.2408C6.8648 33.4517 6.79098 33.6309 6.64335 33.7786C6.51681 33.9262 6.33755 34 6.10556 34H3.22677ZM27.2734 34C27.0625 34 26.8832 33.9262 26.7356 33.7786C26.5879 33.6309 26.5141 33.4517 26.5141 33.2408V12.6464C26.5141 12.4144 26.5879 12.2246 26.7356 12.0769C26.8832 11.9293 27.0625 11.8555 27.2734 11.8555H41.1928C41.4248 11.8555 41.6146 11.9293 41.7622 12.0769C41.9098 12.2246 41.9836 12.4144 41.9836 12.6464V14.7343C41.9836 14.9452 41.9098 15.1244 41.7622 15.2721C41.6146 15.4197 41.4248 15.4935 41.1928 15.4935H30.7848V21.0929H40.4968C40.7288 21.0929 40.9186 21.1667 41.0662 21.3144C41.2139 21.4409 41.2877 21.6202 41.2877 21.8522V23.8135C41.2877 24.0455 41.2139 24.2353 41.0662 24.383C40.9186 24.5095 40.7288 24.5728 40.4968 24.5728H30.7848V30.362H41.4458C41.6778 30.362 41.8676 30.4358 42.0153 30.5834C42.1629 30.731 42.2367 30.9209 42.2367 31.1528V33.2408C42.2367 33.4517 42.1629 33.6309 42.0153 33.7786C41.8676 33.9262 41.6778 34 41.4458 34H27.2734ZM45.833 34C45.6643 34 45.5061 33.9367 45.3585 33.8102C45.2319 33.6836 45.1687 33.5255 45.1687 33.3357C45.1687 33.2513 45.1898 33.1564 45.2319 33.0509L52.856 12.6464C52.9193 12.4355 53.0352 12.2562 53.204 12.1086C53.3938 11.9399 53.6469 11.8555 53.9632 11.8555H57.4114C57.7278 11.8555 57.9703 11.9399 58.139 12.1086C58.3077 12.2562 58.4343 12.4355 58.5186 12.6464L66.1427 33.0509C66.1638 33.1564 66.1743 33.2513 66.1743 33.3357C66.1743 33.5255 66.111 33.6836 65.9845 33.8102C65.858 33.9367 65.7103 34 65.5416 34H62.7894C62.4941 34 62.2727 33.9367 62.125 33.8102C61.9985 33.6626 61.9141 33.5255 61.872 33.3989L60.3851 29.5395H50.9895L49.5027 33.3989C49.4605 33.5255 49.3656 33.6626 49.218 33.8102C49.0914 33.9367 48.8805 34 48.5853 34H45.833ZM52.0967 25.9014H59.2779L55.6715 16.1262L52.0967 25.9014ZM70.887 34C70.6761 34 70.4968 33.9262 70.3492 33.7786C70.2016 33.6309 70.1277 33.4517 70.1277 33.2408V12.6147C70.1277 12.4038 70.2016 12.2246 70.3492 12.0769C70.4968 11.9293 70.6761 11.8555 70.887 11.8555H73.829C74.0399 11.8555 74.2192 11.9293 74.3668 12.0769C74.5145 12.2246 74.5883 12.4038 74.5883 12.6147V30.2354H84.6166C84.8486 30.2354 85.0384 30.3092 85.186 30.4569C85.3336 30.6045 85.4074 30.7943 85.4074 31.0263V33.2408C85.4074 33.4517 85.3336 33.6309 85.186 33.7786C85.0384 33.9262 84.8486 34 84.6166 34H70.887ZM91.5259 34C91.315 34 91.1357 33.9262 90.9881 33.7786C90.8405 33.6309 90.7667 33.4517 90.7667 33.2408V15.7466H84.9142C84.7033 15.7466 84.524 15.6728 84.3764 15.5252C84.2288 15.3775 84.1549 15.1983 84.1549 14.9874V12.6464C84.1549 12.4144 84.2288 12.2246 84.3764 12.0769C84.524 11.9293 84.7033 11.8555 84.9142 11.8555H101.048C101.28 11.8555 101.47 11.9293 101.617 12.0769C101.765 12.2246 101.839 12.4144 101.839 12.6464V14.9874C101.839 15.1983 101.765 15.3775 101.617 15.5252C101.47 15.6728 101.28 15.7466 101.048 15.7466H95.2272V33.2408C95.2272 33.4517 95.1534 33.6309 95.0057 33.7786C94.8581 33.9262 94.6683 34 94.4363 34H91.5259ZM114.189 34.3164C112.227 34.3164 110.561 33.9789 109.19 33.304C107.841 32.6081 106.807 31.6274 106.09 30.362C105.373 29.0755 104.972 27.5359 104.888 25.7433C104.867 24.8786 104.856 23.9506 104.856 22.9594C104.856 21.9682 104.867 21.0191 104.888 20.1122C104.972 18.3407 105.373 16.8116 106.09 15.5252C106.828 14.2387 107.872 13.258 109.222 12.5831C110.593 11.8871 112.248 11.5391 114.189 11.5391C115.623 11.5391 116.909 11.729 118.048 12.1086C119.187 12.4882 120.157 13.0154 120.959 13.6903C121.76 14.3441 122.382 15.1139 122.825 15.9997C123.268 16.8855 123.5 17.8451 123.521 18.8785C123.542 19.0683 123.479 19.2265 123.331 19.353C123.205 19.4795 123.046 19.5428 122.857 19.5428H119.851C119.619 19.5428 119.43 19.4901 119.282 19.3846C119.134 19.2581 119.029 19.0577 118.966 18.7836C118.628 17.3916 118.048 16.4426 117.226 15.9364C116.403 15.4303 115.38 15.1772 114.157 15.1772C112.744 15.1772 111.616 15.5779 110.772 16.3793C109.929 17.1596 109.475 18.4567 109.412 20.2704C109.349 21.9998 109.349 23.7713 109.412 25.5851C109.475 27.3988 109.929 28.7064 110.772 29.5078C111.616 30.2882 112.744 30.6783 114.157 30.6783C115.38 30.6783 116.403 30.4252 117.226 29.9191C118.048 29.3918 118.628 28.4428 118.966 27.0719C119.029 26.7767 119.134 26.5763 119.282 26.4709C119.43 26.3654 119.619 26.3127 119.851 26.3127H122.857C123.046 26.3127 123.205 26.376 123.331 26.5025C123.479 26.629 123.542 26.7872 123.521 26.977C123.5 28.0104 123.268 28.97 122.825 29.8558C122.382 30.7416 121.76 31.5219 120.959 32.1968C120.157 32.8506 119.187 33.3673 118.048 33.7469C116.909 34.1265 115.623 34.3164 114.189 34.3164ZM126.665 34C126.497 34 126.338 33.9367 126.191 33.8102C126.064 33.6836 126.001 33.5255 126.001 33.3357C126.001 33.2513 126.022 33.1564 126.064 33.0509L133.688 12.6464C133.752 12.4355 133.868 12.2562 134.036 12.1086C134.226 11.9399 134.479 11.8555 134.795 11.8555H138.244C138.56 11.8555 138.803 11.9399 138.971 12.1086C139.14 12.2562 139.267 12.4355 139.351 12.6464L146.975 33.0509C146.996 33.1564 147.007 33.2513 147.007 33.3357C147.007 33.5255 146.943 33.6836 146.817 33.8102C146.69 33.9367 146.543 34 146.374 34H143.622C143.326 34 143.105 33.9367 142.957 33.8102C142.831 33.6626 142.746 33.5255 142.704 33.3989L141.217 29.5395H131.822L130.335 33.3989C130.293 33.5255 130.198 33.6626 130.05 33.8102C129.924 33.9367 129.713 34 129.418 34H126.665ZM132.929 25.9014H140.11L136.504 16.1262L132.929 25.9014ZM151.719 34C151.508 34 151.329 33.9262 151.181 33.7786C151.034 33.6309 150.96 33.4517 150.96 33.2408V12.6464C150.96 12.4144 151.034 12.2246 151.181 12.0769C151.329 11.9293 151.508 11.8555 151.719 11.8555H159.913C162.465 11.8555 164.479 12.446 165.955 13.6271C167.431 14.8081 168.169 16.5269 168.169 18.7836C168.169 20.3442 167.779 21.6413 166.999 22.6747C166.24 23.7081 165.217 24.4568 163.93 24.9208L168.549 32.9877C168.612 33.1142 168.644 33.2302 168.644 33.3357C168.644 33.5255 168.57 33.6836 168.423 33.8102C168.296 33.9367 168.148 34 167.98 34H165.101C164.742 34 164.468 33.9051 164.278 33.7153C164.089 33.5255 163.941 33.3357 163.835 33.1459L159.755 25.6484H155.357V33.2408C155.357 33.4517 155.283 33.6309 155.136 33.7786C155.009 33.9262 154.83 34 154.598 34H151.719ZM155.357 22.0736H159.818C161.104 22.0736 162.064 21.7889 162.697 21.2195C163.329 20.6289 163.646 19.8064 163.646 18.7519C163.646 17.6974 163.329 16.8749 162.697 16.2844C162.085 15.6728 161.125 15.367 159.818 15.367H155.357V22.0736ZM174.005 34C173.794 34 173.615 33.9262 173.467 33.7786C173.319 33.6309 173.246 33.4517 173.246 33.2408V12.6464C173.246 12.4144 173.319 12.2246 173.467 12.0769C173.615 11.9293 173.794 11.8555 174.005 11.8555H187.924C188.156 11.8555 188.346 11.9293 188.494 12.0769C188.641 12.2246 188.715 12.4144 188.715 12.6464V14.7343C188.715 14.9452 188.641 15.1244 188.494 15.2721C188.346 15.4197 188.156 15.4935 187.924 15.4935H177.516V21.0929H187.228C187.46 21.0929 187.65 21.1667 187.798 21.3144C187.945 21.4409 188.019 21.6202 188.019 21.8522V23.8135C188.019 24.0455 187.945 24.2353 187.798 24.383C187.65 24.5095 187.46 24.5728 187.228 24.5728H177.516V30.362H188.177C188.409 30.362 188.599 30.4358 188.747 30.5834C188.894 30.731 188.968 30.9209 188.968 31.1528V33.2408C188.968 33.4517 188.894 33.6309 188.747 33.7786C188.599 33.9262 188.409 34 188.177 34H174.005Z" fill="#40A3F8"/>
<rect x="194" y="29" width="7" height="7" rx="3.5" fill="#40A3F8"/>
</svg>
